<svg width="38" height="31" viewBox="0 0 38 31" fill="none" xmlns="http://www.w3.org/2000/svg">
<mask id="mask0_655_7356" style="mask-type:alpha" maskUnits="userSpaceOnUse" x="0" y="7" width="24" height="24">
<rect y="7" width="24" height="24" fill="#D9D9D9"/>
</mask>
<g mask="url(#mask0_655_7356)">
<path d="M7 29C6.45 29 5.97917 28.8042 5.5875 28.4125C5.19583 28.0208 5 27.55 5 27C5 26.45 5.19583 25.9792 5.5875 25.5875C5.97917 25.1958 6.45 25 7 25C7.55 25 8.02083 25.1958 8.4125 25.5875C8.80417 25.9792 9 26.45 9 27C9 27.55 8.80417 28.0208 8.4125 28.4125C8.02083 28.8042 7.55 29 7 29ZM17 29C16.45 29 15.9792 28.8042 15.5875 28.4125C15.1958 28.0208 15 27.55 15 27C15 26.45 15.1958 25.9792 15.5875 25.5875C15.9792 25.1958 16.45 25 17 25C17.55 25 18.0208 25.1958 18.4125 25.5875C18.8042 25.9792 19 26.45 19 27C19 27.55 18.8042 28.0208 18.4125 28.4125C18.0208 28.8042 17.55 29 17 29ZM6.15 13L8.55 18H15.55L18.3 13H6.15ZM5.2 11H19.95C20.3333 11 20.625 11.1708 20.825 11.5125C21.025 11.8542 21.0333 12.2 20.85 12.55L17.3 18.95C17.1167 19.2833 16.8708 19.5417 16.5625 19.725C16.2542 19.9083 15.9167 20 15.55 20H8.1L7 22H18C18.2833 22 18.5208 22.0958 18.7125 22.2875C18.9042 22.4792 19 22.7167 19 23C19 23.2833 18.9042 23.5208 18.7125 23.7125C18.5208 23.9042 18.2833 24 18 24H7C6.25 24 5.68333 23.6708 5.3 23.0125C4.91667 22.3542 4.9 21.7 5.25 21.05L6.6 18.6L3 11H2C1.71667 11 1.47917 10.9042 1.2875 10.7125C1.09583 10.5208 1 10.2833 1 10C1 9.71667 1.09583 9.47917 1.2875 9.2875C1.47917 9.09583 1.71667 9 2 9H3.625C3.80833 9 3.98333 9.05 4.15 9.15C4.31667 9.25 4.44167 9.39167 4.525 9.575L5.2 11Z" fill="black"/>
</g>
<path d="M15 8C15 3.58172 18.5817 0 23 0H30C34.4183 0 38 3.58172 38 8V8C38 12.4183 34.4183 16 30 16H23C18.5817 16 15 12.4183 15 8V8Z" fill="black"/>
<path d="M22.3717 5.832C22.3637 5.552 22.3357 5.348 22.2877 5.22C22.2397 5.092 22.1557 5.024 22.0357 5.016C22.0197 5.024 21.9717 5.032 21.8917 5.04C21.8197 5.04 21.7557 5.044 21.6997 5.052C21.6357 5.06 21.5717 5.068 21.5077 5.076C21.4437 5.076 21.3917 5.076 21.3517 5.076C20.9197 5.076 20.7037 4.888 20.7037 4.512C20.7037 4.136 20.9117 3.948 21.3277 3.948C21.3677 3.948 21.4277 3.952 21.5077 3.96C21.5957 3.96 21.6837 3.968 21.7717 3.984C21.7957 3.984 21.8157 3.988 21.8317 3.996C21.8477 3.996 21.8637 3.996 21.8797 3.996C21.9437 4.004 22.0037 4.008 22.0597 4.008C22.1237 4.008 22.1757 4.008 22.2157 4.008C22.3357 4.008 22.4437 4.008 22.5397 4.008C22.6357 4 22.7237 3.992 22.8037 3.984H22.7917C23.0397 3.96 23.1957 3.948 23.2597 3.948C23.3877 3.948 23.4917 3.972 23.5717 4.02C23.6517 4.068 23.7117 4.132 23.7517 4.212C23.7917 4.332 23.8117 4.468 23.8117 4.62C23.8117 4.636 23.8117 4.672 23.8117 4.728C23.8117 4.784 23.8077 4.844 23.7997 4.908C23.7837 5.3 23.7677 5.688 23.7517 6.072C23.7437 6.448 23.7397 6.8 23.7397 7.128V8.424C23.7397 8.552 23.7397 8.692 23.7397 8.844C23.7397 8.996 23.7437 9.176 23.7517 9.384C23.7517 9.48 23.7517 9.568 23.7517 9.648C23.7597 9.728 23.7637 9.8 23.7637 9.864C23.7717 9.96 23.7757 10.056 23.7757 10.152C23.7757 10.24 23.7757 10.304 23.7757 10.344C23.7917 10.768 23.9037 10.98 24.1117 10.98C24.1517 10.98 24.2037 10.98 24.2677 10.98C24.3317 10.972 24.4037 10.964 24.4837 10.956C24.5557 10.948 24.6277 10.94 24.6997 10.932C24.7717 10.924 24.8277 10.92 24.8677 10.92C25.3717 10.92 25.6237 11.108 25.6237 11.484C25.6237 11.86 25.3877 12.048 24.9157 12.048C24.8437 12.048 24.7757 12.044 24.7117 12.036C24.6477 12.036 24.5837 12.032 24.5197 12.024C24.1997 11.984 23.9197 11.952 23.6797 11.928C23.4397 11.904 23.2397 11.892 23.0797 11.892C22.7517 11.892 22.3437 11.928 21.8557 12C21.7197 12.016 21.5997 12.028 21.4957 12.036C21.3917 12.052 21.3077 12.06 21.2437 12.06C20.7797 12.06 20.5477 11.868 20.5477 11.484C20.5477 11.108 20.8037 10.92 21.3157 10.92C21.3797 10.92 21.4437 10.924 21.5077 10.932C21.5797 10.932 21.6437 10.94 21.6997 10.956C21.7317 10.956 21.7637 10.96 21.7957 10.968C21.8277 10.968 21.8557 10.968 21.8797 10.968C21.9117 10.968 21.9357 10.972 21.9517 10.98C21.9757 10.98 21.9957 10.98 22.0117 10.98C22.1637 10.98 22.2677 10.912 22.3237 10.776C22.3477 10.672 22.3677 10.488 22.3837 10.224C22.3997 9.96 22.4077 9.612 22.4077 9.18L22.3717 5.832ZM28.4117 6.924C28.6677 6.788 28.9437 6.68 29.2397 6.6C29.5437 6.52 29.8517 6.48 30.1637 6.48C30.6197 6.48 31.0317 6.544 31.3997 6.672C31.7677 6.8 32.0797 6.98 32.3357 7.212C32.5917 7.444 32.7877 7.732 32.9237 8.076C33.0677 8.412 33.1397 8.788 33.1397 9.204C33.1397 10.084 32.8197 10.82 32.1797 11.412C31.5477 11.972 30.7277 12.252 29.7197 12.252C28.8877 12.252 28.1797 12.052 27.5957 11.652C26.9957 11.236 26.6957 10.716 26.6957 10.092C26.6957 9.932 26.7237 9.784 26.7797 9.648C26.8357 9.504 26.9117 9.384 27.0077 9.288C27.1117 9.184 27.2317 9.104 27.3677 9.048C27.5037 8.984 27.6477 8.952 27.7997 8.952C28.0557 8.952 28.2637 9.024 28.4237 9.168C28.5917 9.312 28.6757 9.504 28.6757 9.744C28.6757 9.912 28.6157 10.06 28.4957 10.188C28.3837 10.308 28.2477 10.376 28.0877 10.392C28.1357 10.552 28.2997 10.708 28.5797 10.86L28.5677 10.848C28.7597 10.936 28.9637 11.008 29.1797 11.064C29.3957 11.112 29.6197 11.136 29.8517 11.136C30.4117 11.136 30.8677 10.964 31.2197 10.62C31.5797 10.284 31.7597 9.832 31.7597 9.264C31.7597 8.744 31.6077 8.336 31.3037 8.04C31.0077 7.744 30.5997 7.596 30.0797 7.596C29.4397 7.596 28.9157 7.788 28.5077 8.172C28.4197 8.26 28.3437 8.332 28.2797 8.388C28.2237 8.444 28.1717 8.488 28.1237 8.52C28.0757 8.552 28.0237 8.58 27.9677 8.604C27.9197 8.62 27.8597 8.632 27.7877 8.64H27.7037C27.2717 8.64 27.0557 8.416 27.0557 7.968C27.0557 7.952 27.0517 7.94 27.0437 7.932C27.0437 7.916 27.0517 7.896 27.0677 7.872C27.0917 7.512 27.1197 7.148 27.1517 6.78C27.1837 6.412 27.2117 6.048 27.2357 5.688C27.2437 5.648 27.2477 5.604 27.2477 5.556C27.2477 5.5 27.2477 5.44 27.2477 5.376C27.2477 5.328 27.2477 5.28 27.2477 5.232C27.2557 5.184 27.2597 5.128 27.2597 5.064C27.2677 4.632 27.3077 4.348 27.3797 4.212H27.3677C27.4637 4.06 27.6637 3.984 27.9677 3.984C28.0157 3.984 28.0637 3.984 28.1117 3.984C28.1677 3.984 28.2037 3.988 28.2197 3.996C28.3077 3.996 28.3957 3.996 28.4837 3.996C28.5717 3.988 28.6597 3.984 28.7477 3.984H30.8237C30.9357 3.984 31.0277 3.984 31.0997 3.984C31.1797 3.984 31.2517 3.98 31.3157 3.972C31.3557 3.972 31.3917 3.972 31.4237 3.972C31.4557 3.964 31.4917 3.96 31.5317 3.96C31.5797 3.952 31.6277 3.948 31.6757 3.948C31.7317 3.948 31.7757 3.948 31.8077 3.948C32.2477 3.948 32.4677 4.228 32.4677 4.788L32.4557 4.872C32.4557 4.96 32.4637 5.06 32.4797 5.172C32.4957 5.284 32.5157 5.404 32.5397 5.532C32.5637 5.588 32.5757 5.64 32.5757 5.688C32.5837 5.728 32.5877 5.772 32.5877 5.82C32.5877 6.18 32.3917 6.36 31.9997 6.36C31.6237 6.36 31.4277 6.124 31.4117 5.652C31.4037 5.332 31.2837 5.172 31.0517 5.172H28.6397C28.5597 5.172 28.5157 5.26 28.5077 5.436L28.4117 6.924Z" fill="white"/>
</svg>
