<svg width="26" height="24" viewBox="0 0 26 24" fill="none" xmlns="http://www.w3.org/2000/svg">
<mask id="mask0_647_7139" style="mask-type:alpha" maskUnits="userSpaceOnUse" x="0" y="0" width="26" height="24">
<mask id="mask1_647_7139" style="mask-type:alpha" maskUnits="userSpaceOnUse" x="0" y="0" width="26" height="24">
<rect x="0.172852" width="25.1852" height="24" fill="#D9D9D9"/>
</mask>
<g mask="url(#mask1_647_7139)">
<path d="M7.51846 22C6.9413 22 6.44722 21.8042 6.03621 21.4125C5.6252 21.0208 5.4197 20.55 5.4197 20C5.4197 19.45 5.6252 18.9792 6.03621 18.5875C6.44722 18.1958 6.9413 18 7.51846 18C8.09562 18 8.58971 18.1958 9.00072 18.5875C9.41173 18.9792 9.61723 19.45 9.61723 20C9.61723 20.55 9.41173 21.0208 9.00072 21.4125C8.58971 21.8042 8.09562 22 7.51846 22ZM18.0123 22C17.4351 22 16.941 21.8042 16.53 21.4125C16.119 21.0208 15.9135 20.55 15.9135 20C15.9135 19.45 16.119 18.9792 16.53 18.5875C16.941 18.1958 17.4351 18 18.0123 18C18.5895 18 19.0835 18.1958 19.4945 18.5875C19.9056 18.9792 20.1111 19.45 20.1111 20C20.1111 20.55 19.9056 21.0208 19.4945 21.4125C19.0835 21.8042 18.5895 22 18.0123 22ZM6.62649 6L9.14501 11H16.4907L19.3765 6H6.62649ZM5.62958 4H21.108C21.5102 4 21.8163 4.17083 22.0262 4.5125C22.2361 4.85417 22.2448 5.2 22.0524 5.55L18.3271 11.95C18.1347 12.2833 17.8767 12.5417 17.5532 12.725C17.2296 12.9083 16.8755 13 16.4907 13H8.67278L7.51846 15H19.0617C19.359 15 19.6082 15.0958 19.8094 15.2875C20.0105 15.4792 20.1111 15.7167 20.1111 16C20.1111 16.2833 20.0105 16.5208 19.8094 16.7125C19.6082 16.9042 19.359 17 19.0617 17H7.51846C6.73143 17 6.13678 16.6708 5.73451 16.0125C5.33225 15.3542 5.31476 14.7 5.68204 14.05L7.09871 11.6L3.32093 4H2.27155C1.97423 4 1.725 3.90417 1.52387 3.7125C1.32273 3.52083 1.22217 3.28333 1.22217 3C1.22217 2.71667 1.32273 2.47917 1.52387 2.2875C1.725 2.09583 1.97423 2 2.27155 2H3.9768C4.16918 2 4.35283 2.05 4.52772 2.15C4.70262 2.25 4.83379 2.39167 4.92124 2.575L5.62958 4Z" fill="#1C1B1F"/>
</g>
</mask>
<g mask="url(#mask0_647_7139)">
<rect x="0.172852" width="25.1852" height="24" fill="white"/>
</g>
</svg>
