<svg width="24" height="25" viewBox="0 0 24 25" fill="none" xmlns="http://www.w3.org/2000/svg">
<mask id="mask0_3_4408" style="mask-type:alpha" maskUnits="userSpaceOnUse" x="0" y="0" width="24" height="25">
<mask id="mask1_3_4408" style="mask-type:alpha" maskUnits="userSpaceOnUse" x="0" y="0" width="24" height="25">
<rect y="0.600525" width="24" height="24" fill="#D9D9D9"/>
</mask>
<g mask="url(#mask1_3_4408)">
<path d="M12.6 12.6005L8.69999 8.70052C8.51665 8.51719 8.42499 8.28386 8.42499 8.00052C8.42499 7.71719 8.51665 7.48386 8.69999 7.30052C8.88332 7.11719 9.11665 7.02552 9.39999 7.02552C9.68332 7.02552 9.91665 7.11719 10.1 7.30052L14.7 11.9005C14.8 12.0005 14.8708 12.1089 14.9125 12.2255C14.9542 12.3422 14.975 12.4672 14.975 12.6005C14.975 12.7339 14.9542 12.8589 14.9125 12.9755C14.8708 13.0922 14.8 13.2005 14.7 13.3005L10.1 17.9005C9.91665 18.0839 9.68332 18.1755 9.39999 18.1755C9.11665 18.1755 8.88332 18.0839 8.69999 17.9005C8.51665 17.7172 8.42499 17.4839 8.42499 17.2005C8.42499 16.9172 8.51665 16.6839 8.69999 16.5005L12.6 12.6005Z" fill="#1C1B1F"/>
</g>
</mask>
<g mask="url(#mask0_3_4408)">
<rect y="0.600525" width="24" height="24" fill="white"/>
</g>
</svg>
