<svg width="48" height="49" viewBox="0 0 48 49" fill="none" xmlns="http://www.w3.org/2000/svg">
<mask id="mask0_541_466" style="mask-type:alpha" maskUnits="userSpaceOnUse" x="0" y="0" width="48" height="49">
<path d="M35.6626 21.559C35.6626 18.7289 33.3764 16.4427 30.5464 16.4427H17.4637C14.6337 16.4427 12.3475 18.7289 12.3475 21.559V27.6421C12.3475 30.4721 14.6337 32.7583 17.4637 32.7583H30.5464C33.3764 32.7583 35.6626 30.4721 35.6626 27.6421V21.559ZM27.9681 25.0537L22.1066 27.9543C21.875 28.0751 21.0995 27.914 21.0995 27.6521V21.6899C21.0995 21.4281 21.885 21.2568 22.1167 21.3878L27.7365 24.4394C27.9681 24.5703 28.2199 24.9127 27.9782 25.0437L27.9681 25.0537Z" fill="white"/>
</mask>
<g mask="url(#mask0_541_466)">
<rect y="0.600586" width="48" height="48" fill="white"/>
</g>
</svg>
