<svg width="24" height="24" viewBox="0 0 24 24" fill="none" xmlns="http://www.w3.org/2000/svg">
<mask id="mask0_541_216" style="mask-type:alpha" maskUnits="userSpaceOnUse" x="0" y="0" width="24" height="25">
<mask id="mask1_541_216" style="mask-type:alpha" maskUnits="userSpaceOnUse" x="0" y="0" width="24" height="25">
<rect y="0.000732422" width="24" height="24" fill="#D9D9D9"/>
</mask>
<g mask="url(#mask1_541_216)">
<path d="M12 20.3256C11.7667 20.3256 11.5292 20.284 11.2875 20.2006C11.0458 20.1173 10.8333 19.984 10.65 19.8006L8.925 18.2256C7.15833 16.609 5.5625 15.0048 4.1375 13.4131C2.7125 11.8215 2 10.0673 2 8.15064C2 6.58397 2.525 5.27564 3.575 4.22563C4.625 3.17563 5.93333 2.65063 7.5 2.65063C8.38333 2.65063 9.21667 2.83813 10 3.21313C10.7833 3.58813 11.45 4.10063 12 4.75063C12.55 4.10063 13.2167 3.58813 14 3.21313C14.7833 2.83813 15.6167 2.65063 16.5 2.65063C18.0667 2.65063 19.375 3.17563 20.425 4.22563C21.475 5.27564 22 6.58397 22 8.15064C22 10.0673 21.2917 11.8256 19.875 13.4256C18.4583 15.0256 16.85 16.634 15.05 18.2506L13.35 19.8006C13.1667 19.984 12.9542 20.1173 12.7125 20.2006C12.4708 20.284 12.2333 20.3256 12 20.3256ZM11.05 6.75064C10.5667 6.0673 10.05 5.54647 9.5 5.18813C8.95 4.8298 8.28333 4.65064 7.5 4.65064C6.5 4.65064 5.66667 4.98397 5 5.65064C4.33333 6.3173 4 7.15064 4 8.15064C4 9.0173 4.30833 9.93814 4.925 10.9131C5.54167 11.8881 6.27917 12.834 7.1375 13.7506C7.99583 14.6673 8.87917 15.5256 9.7875 16.3256C10.6958 17.1256 11.4333 17.784 12 18.3006C12.5667 17.784 13.3042 17.1256 14.2125 16.3256C15.1208 15.5256 16.0042 14.6673 16.8625 13.7506C17.7208 12.834 18.4583 11.8881 19.075 10.9131C19.6917 9.93814 20 9.0173 20 8.15064C20 7.15064 19.6667 6.3173 19 5.65064C18.3333 4.98397 17.5 4.65064 16.5 4.65064C15.7167 4.65064 15.05 4.8298 14.5 5.18813C13.95 5.54647 13.4333 6.0673 12.95 6.75064C12.8333 6.9173 12.6917 7.0423 12.525 7.12564C12.3583 7.20897 12.1833 7.25064 12 7.25064C11.8167 7.25064 11.6417 7.20897 11.475 7.12564C11.3083 7.0423 11.1667 6.9173 11.05 6.75064Z" fill="#1C1B1F"/>
</g>
</mask>
<g mask="url(#mask0_541_216)">
<rect y="0.000732422" width="24" height="24" fill="white"/>
</g>
</svg>
