<svg width="48" height="49" viewBox="0 0 48 49" fill="none" xmlns="http://www.w3.org/2000/svg">
<mask id="mask0_541_790" style="mask-type:alpha" maskUnits="userSpaceOnUse" x="0" y="0" width="48" height="49">
<path d="M30.6169 16.5737C29.8112 16.5737 29.1565 17.2284 29.1565 18.0341C29.1565 18.8398 29.8112 19.4944 30.6169 19.4944C31.4226 19.4944 32.0772 18.8398 32.0772 18.0341C32.0772 17.2284 31.4226 16.5737 30.6169 16.5737Z" fill="white"/>
<path d="M24.1007 18.447C20.7067 18.447 17.9471 21.2066 17.9471 24.6006C17.9471 27.9947 20.7067 30.7542 24.1007 30.7542C27.4947 30.7542 30.2543 27.9947 30.2543 24.6006C30.2543 21.2066 27.4947 18.447 24.1007 18.447ZM24.1007 28.5385C21.9253 28.5385 20.1628 26.7659 20.1628 24.6006C20.1628 22.4353 21.9354 20.6627 24.1007 20.6627C26.266 20.6627 28.0386 22.4353 28.0386 24.6006C28.0386 26.7659 26.266 28.5385 24.1007 28.5385Z" fill="white"/>
<path d="M28.9853 37.0891H19.0147C14.8754 37.0891 11.5115 33.7253 11.5115 29.586V19.6153C11.5115 15.476 14.8754 12.1122 19.0147 12.1122H28.9853C33.1246 12.1122 36.4885 15.476 36.4885 19.6153V29.586C36.4885 33.7253 33.1246 37.0891 28.9853 37.0891ZM19.0147 14.4588C16.1746 14.4588 13.8582 16.7752 13.8582 19.6153V29.586C13.8582 32.4261 16.1746 34.7425 19.0147 34.7425H28.9853C31.8254 34.7425 34.1418 32.4261 34.1418 29.586V19.6153C34.1418 16.7752 31.8254 14.4588 28.9853 14.4588H19.0147Z" fill="white"/>
</mask>
<g mask="url(#mask0_541_790)">
<rect y="0.600586" width="48" height="48" fill="white"/>
</g>
</svg>
