<svg width="23" height="16" viewBox="0 0 23 16" fill="none" xmlns="http://www.w3.org/2000/svg">
<path d="M0 8C0 3.58172 3.58172 0 8 0H15C19.4183 0 23 3.58172 23 8V8C23 12.4183 19.4183 16 15 16H8C3.58172 16 0 12.4183 0 8V8Z" fill="black"/>
<path d="M7.37167 5.832C7.36367 5.552 7.33567 5.348 7.28767 5.22C7.23967 5.092 7.15567 5.024 7.03567 5.016C7.01967 5.024 6.97167 5.032 6.89167 5.04C6.81967 5.04 6.75567 5.044 6.69967 5.052C6.63567 5.06 6.57167 5.068 6.50767 5.076C6.44367 5.076 6.39167 5.076 6.35167 5.076C5.91967 5.076 5.70367 4.888 5.70367 4.512C5.70367 4.136 5.91167 3.948 6.32767 3.948C6.36767 3.948 6.42767 3.952 6.50767 3.96C6.59567 3.96 6.68367 3.968 6.77167 3.984C6.79567 3.984 6.81567 3.988 6.83167 3.996C6.84767 3.996 6.86367 3.996 6.87967 3.996C6.94367 4.004 7.00367 4.008 7.05967 4.008C7.12367 4.008 7.17567 4.008 7.21567 4.008C7.33567 4.008 7.44367 4.008 7.53967 4.008C7.63567 4 7.72367 3.992 7.80367 3.984H7.79167C8.03967 3.96 8.19567 3.948 8.25967 3.948C8.38767 3.948 8.49167 3.972 8.57167 4.02C8.65167 4.068 8.71167 4.132 8.75167 4.212C8.79167 4.332 8.81167 4.468 8.81167 4.62C8.81167 4.636 8.81167 4.672 8.81167 4.728C8.81167 4.784 8.80767 4.844 8.79967 4.908C8.78367 5.3 8.76767 5.688 8.75167 6.072C8.74367 6.448 8.73967 6.8 8.73967 7.128V8.424C8.73967 8.552 8.73967 8.692 8.73967 8.844C8.73967 8.996 8.74367 9.176 8.75167 9.384C8.75167 9.48 8.75167 9.568 8.75167 9.648C8.75967 9.728 8.76367 9.8 8.76367 9.864C8.77167 9.96 8.77567 10.056 8.77567 10.152C8.77567 10.24 8.77567 10.304 8.77567 10.344C8.79167 10.768 8.90367 10.98 9.11167 10.98C9.15167 10.98 9.20367 10.98 9.26767 10.98C9.33167 10.972 9.40367 10.964 9.48367 10.956C9.55567 10.948 9.62767 10.94 9.69967 10.932C9.77167 10.924 9.82767 10.92 9.86767 10.92C10.3717 10.92 10.6237 11.108 10.6237 11.484C10.6237 11.86 10.3877 12.048 9.91567 12.048C9.84367 12.048 9.77567 12.044 9.71167 12.036C9.64767 12.036 9.58367 12.032 9.51967 12.024C9.19967 11.984 8.91967 11.952 8.67967 11.928C8.43967 11.904 8.23967 11.892 8.07967 11.892C7.75167 11.892 7.34367 11.928 6.85567 12C6.71967 12.016 6.59967 12.028 6.49567 12.036C6.39167 12.052 6.30767 12.06 6.24367 12.06C5.77967 12.06 5.54767 11.868 5.54767 11.484C5.54767 11.108 5.80367 10.92 6.31567 10.92C6.37967 10.92 6.44367 10.924 6.50767 10.932C6.57967 10.932 6.64367 10.94 6.69967 10.956C6.73167 10.956 6.76367 10.96 6.79567 10.968C6.82767 10.968 6.85567 10.968 6.87967 10.968C6.91167 10.968 6.93567 10.972 6.95167 10.98C6.97567 10.98 6.99567 10.98 7.01167 10.98C7.16367 10.98 7.26767 10.912 7.32367 10.776C7.34767 10.672 7.36767 10.488 7.38367 10.224C7.39967 9.96 7.40767 9.612 7.40767 9.18L7.37167 5.832ZM13.4117 6.924C13.6677 6.788 13.9437 6.68 14.2397 6.6C14.5437 6.52 14.8517 6.48 15.1637 6.48C15.6197 6.48 16.0317 6.544 16.3997 6.672C16.7677 6.8 17.0797 6.98 17.3357 7.212C17.5917 7.444 17.7877 7.732 17.9237 8.076C18.0677 8.412 18.1397 8.788 18.1397 9.204C18.1397 10.084 17.8197 10.82 17.1797 11.412C16.5477 11.972 15.7277 12.252 14.7197 12.252C13.8877 12.252 13.1797 12.052 12.5957 11.652C11.9957 11.236 11.6957 10.716 11.6957 10.092C11.6957 9.932 11.7237 9.784 11.7797 9.648C11.8357 9.504 11.9117 9.384 12.0077 9.288C12.1117 9.184 12.2317 9.104 12.3677 9.048C12.5037 8.984 12.6477 8.952 12.7997 8.952C13.0557 8.952 13.2637 9.024 13.4237 9.168C13.5917 9.312 13.6757 9.504 13.6757 9.744C13.6757 9.912 13.6157 10.06 13.4957 10.188C13.3837 10.308 13.2477 10.376 13.0877 10.392C13.1357 10.552 13.2997 10.708 13.5797 10.86L13.5677 10.848C13.7597 10.936 13.9637 11.008 14.1797 11.064C14.3957 11.112 14.6197 11.136 14.8517 11.136C15.4117 11.136 15.8677 10.964 16.2197 10.62C16.5797 10.284 16.7597 9.832 16.7597 9.264C16.7597 8.744 16.6077 8.336 16.3037 8.04C16.0077 7.744 15.5997 7.596 15.0797 7.596C14.4397 7.596 13.9157 7.788 13.5077 8.172C13.4197 8.26 13.3437 8.332 13.2797 8.388C13.2237 8.444 13.1717 8.488 13.1237 8.52C13.0757 8.552 13.0237 8.58 12.9677 8.604C12.9197 8.62 12.8597 8.632 12.7877 8.64H12.7037C12.2717 8.64 12.0557 8.416 12.0557 7.968C12.0557 7.952 12.0517 7.94 12.0437 7.932C12.0437 7.916 12.0517 7.896 12.0677 7.872C12.0917 7.512 12.1197 7.148 12.1517 6.78C12.1837 6.412 12.2117 6.048 12.2357 5.688C12.2437 5.648 12.2477 5.604 12.2477 5.556C12.2477 5.5 12.2477 5.44 12.2477 5.376C12.2477 5.328 12.2477 5.28 12.2477 5.232C12.2557 5.184 12.2597 5.128 12.2597 5.064C12.2677 4.632 12.3077 4.348 12.3797 4.212H12.3677C12.4637 4.06 12.6637 3.984 12.9677 3.984C13.0157 3.984 13.0637 3.984 13.1117 3.984C13.1677 3.984 13.2037 3.988 13.2197 3.996C13.3077 3.996 13.3957 3.996 13.4837 3.996C13.5717 3.988 13.6597 3.984 13.7477 3.984H15.8237C15.9357 3.984 16.0277 3.984 16.0997 3.984C16.1797 3.984 16.2517 3.98 16.3157 3.972C16.3557 3.972 16.3917 3.972 16.4237 3.972C16.4557 3.964 16.4917 3.96 16.5317 3.96C16.5797 3.952 16.6277 3.948 16.6757 3.948C16.7317 3.948 16.7757 3.948 16.8077 3.948C17.2477 3.948 17.4677 4.228 17.4677 4.788L17.4557 4.872C17.4557 4.96 17.4637 5.06 17.4797 5.172C17.4957 5.284 17.5157 5.404 17.5397 5.532C17.5637 5.588 17.5757 5.64 17.5757 5.688C17.5837 5.728 17.5877 5.772 17.5877 5.82C17.5877 6.18 17.3917 6.36 16.9997 6.36C16.6237 6.36 16.4277 6.124 16.4117 5.652C16.4037 5.332 16.2837 5.172 16.0517 5.172H13.6397C13.5597 5.172 13.5157 5.26 13.5077 5.436L13.4117 6.924Z" fill="white"/>
</svg>
