<svg width="32" height="24" viewBox="0 0 32 24" fill="none" xmlns="http://www.w3.org/2000/svg">
<mask id="mask0_3_2283" style="mask-type:alpha" maskUnits="userSpaceOnUse" x="8" y="0" width="24" height="24">
<rect x="8.00006" width="24" height="24" fill="#D9D9D9"/>
</mask>
<g mask="url(#mask0_3_2283)">
<path d="M17.5001 16C15.6834 16 14.1459 15.3708 12.8876 14.1125C11.6292 12.8542 11.0001 11.3167 11.0001 9.5C11.0001 7.68333 11.6292 6.14583 12.8876 4.8875C14.1459 3.62917 15.6834 3 17.5001 3C19.3167 3 20.8542 3.62917 22.1126 4.8875C23.3709 6.14583 24.0001 7.68333 24.0001 9.5C24.0001 10.2333 23.8834 10.925 23.6501 11.575C23.4167 12.225 23.1001 12.8 22.7001 13.3L28.3001 18.9C28.4834 19.0833 28.5751 19.3167 28.5751 19.6C28.5751 19.8833 28.4834 20.1167 28.3001 20.3C28.1167 20.4833 27.8834 20.575 27.6001 20.575C27.3167 20.575 27.0834 20.4833 26.9001 20.3L21.3001 14.7C20.8001 15.1 20.2251 15.4167 19.5751 15.65C18.9251 15.8833 18.2334 16 17.5001 16ZM17.5001 14C18.7501 14 19.8126 13.5625 20.6876 12.6875C21.5626 11.8125 22.0001 10.75 22.0001 9.5C22.0001 8.25 21.5626 7.1875 20.6876 6.3125C19.8126 5.4375 18.7501 5 17.5001 5C16.2501 5 15.1876 5.4375 14.3126 6.3125C13.4376 7.1875 13.0001 8.25 13.0001 9.5C13.0001 10.75 13.4376 11.8125 14.3126 12.6875C15.1876 13.5625 16.2501 14 17.5001 14Z" fill="black"/>
</g>
</svg>
