<svg width="26" height="28" viewBox="0 0 26 28" fill="none" xmlns="http://www.w3.org/2000/svg">
<mask id="mask0_658_2243" style="mask-type:alpha" maskUnits="userSpaceOnUse" x="0" y="4" width="26" height="24">
<mask id="mask1_658_2243" style="mask-type:alpha" maskUnits="userSpaceOnUse" x="0" y="4" width="26" height="24">
<rect y="4" width="25.1852" height="24" fill="#D9D9D9"/>
</mask>
<g mask="url(#mask1_658_2243)">
<path d="M7.34561 26C6.76845 26 6.27437 25.8042 5.86336 25.4125C5.45235 25.0208 5.24685 24.55 5.24685 24C5.24685 23.45 5.45235 22.9792 5.86336 22.5875C6.27437 22.1958 6.76845 22 7.34561 22C7.92277 22 8.41686 22.1958 8.82787 22.5875C9.23887 22.9792 9.44438 23.45 9.44438 24C9.44438 24.55 9.23887 25.0208 8.82787 25.4125C8.41686 25.8042 7.92277 26 7.34561 26ZM17.8394 26C17.2623 26 16.7682 25.8042 16.3572 25.4125C15.9462 25.0208 15.7407 24.55 15.7407 24C15.7407 23.45 15.9462 22.9792 16.3572 22.5875C16.7682 22.1958 17.2623 22 17.8394 22C18.4166 22 18.9107 22.1958 19.3217 22.5875C19.7327 22.9792 19.9382 23.45 19.9382 24C19.9382 24.55 19.7327 25.0208 19.3217 25.4125C18.9107 25.8042 18.4166 26 17.8394 26ZM6.45364 10L8.97216 15H16.3178L19.2036 10H6.45364ZM5.45672 8H20.9351C21.3374 8 21.6435 8.17083 21.8533 8.5125C22.0632 8.85417 22.0719 9.2 21.8796 9.55L18.1543 15.95C17.9619 16.2833 17.7039 16.5417 17.3803 16.725C17.0568 16.9083 16.7026 17 16.3178 17H8.49993L7.34561 19H18.8888C19.1861 19 19.4354 19.0958 19.6365 19.2875C19.8376 19.4792 19.9382 19.7167 19.9382 20C19.9382 20.2833 19.8376 20.5208 19.6365 20.7125C19.4354 20.9042 19.1861 21 18.8888 21H7.34561C6.55858 21 5.96393 20.6708 5.56166 20.0125C5.1594 19.3542 5.14191 18.7 5.50919 18.05L6.92586 15.6L3.14808 8H2.0987C1.80137 8 1.55215 7.90417 1.35101 7.7125C1.14988 7.52083 1.04932 7.28333 1.04932 7C1.04932 6.71667 1.14988 6.47917 1.35101 6.2875C1.55215 6.09583 1.80137 6 2.0987 6H3.80395C3.99633 6 4.17997 6.05 4.35487 6.15C4.52977 6.25 4.66094 6.39167 4.74839 6.575L5.45672 8Z" fill="#1C1B1F"/>
</g>
</mask>
<g mask="url(#mask0_658_2243)">
<path d="M0 4H25.1852V28H0V4Z" fill="black"/>
<path d="M22.1988 9.832C22.1908 9.552 22.1628 9.348 22.1148 9.22C22.0668 9.092 21.9828 9.024 21.8628 9.016C21.8468 9.024 21.7988 9.032 21.7188 9.04C21.6468 9.04 21.5828 9.044 21.5268 9.052C21.4628 9.06 21.3988 9.068 21.3348 9.076C21.2708 9.076 21.2188 9.076 21.1788 9.076C20.7468 9.076 20.5308 8.888 20.5308 8.512C20.5308 8.136 20.7388 7.948 21.1548 7.948C21.1948 7.948 21.2548 7.952 21.3348 7.96C21.4228 7.96 21.5108 7.968 21.5988 7.984C21.6228 7.984 21.6428 7.988 21.6588 7.996C21.6748 7.996 21.6908 7.996 21.7068 7.996C21.7708 8.004 21.8308 8.008 21.8868 8.008C21.9508 8.008 22.0028 8.008 22.0428 8.008C22.1628 8.008 22.2708 8.008 22.3668 8.008C22.4628 8 22.5508 7.992 22.6308 7.984H22.6188C22.8668 7.96 23.0228 7.948 23.0868 7.948C23.2148 7.948 23.3188 7.972 23.3988 8.02C23.4788 8.068 23.5388 8.132 23.5788 8.212C23.6188 8.332 23.6388 8.468 23.6388 8.62C23.6388 8.636 23.6388 8.672 23.6388 8.728C23.6388 8.784 23.6348 8.844 23.6268 8.908C23.6108 9.3 23.5948 9.688 23.5788 10.072C23.5708 10.448 23.5668 10.8 23.5668 11.128V12.424C23.5668 12.552 23.5668 12.692 23.5668 12.844C23.5668 12.996 23.5708 13.176 23.5788 13.384C23.5788 13.48 23.5788 13.568 23.5788 13.648C23.5868 13.728 23.5908 13.8 23.5908 13.864C23.5988 13.96 23.6028 14.056 23.6028 14.152C23.6028 14.24 23.6028 14.304 23.6028 14.344C23.6188 14.768 23.7308 14.98 23.9388 14.98C23.9788 14.98 24.0308 14.98 24.0948 14.98C24.1588 14.972 24.2308 14.964 24.3108 14.956C24.3828 14.948 24.4548 14.94 24.5268 14.932C24.5988 14.924 24.6548 14.92 24.6948 14.92C25.1988 14.92 25.4508 15.108 25.4508 15.484C25.4508 15.86 25.2148 16.048 24.7428 16.048C24.6708 16.048 24.6028 16.044 24.5388 16.036C24.4748 16.036 24.4108 16.032 24.3468 16.024C24.0268 15.984 23.7468 15.952 23.5068 15.928C23.2668 15.904 23.0668 15.892 22.9068 15.892C22.5788 15.892 22.1708 15.928 21.6828 16C21.5468 16.016 21.4268 16.028 21.3228 16.036C21.2188 16.052 21.1348 16.06 21.0708 16.06C20.6068 16.06 20.3748 15.868 20.3748 15.484C20.3748 15.108 20.6308 14.92 21.1428 14.92C21.2068 14.92 21.2708 14.924 21.3348 14.932C21.4068 14.932 21.4708 14.94 21.5268 14.956C21.5588 14.956 21.5908 14.96 21.6228 14.968C21.6548 14.968 21.6828 14.968 21.7068 14.968C21.7388 14.968 21.7628 14.972 21.7788 14.98C21.8028 14.98 21.8228 14.98 21.8388 14.98C21.9908 14.98 22.0948 14.912 22.1508 14.776C22.1748 14.672 22.1948 14.488 22.2108 14.224C22.2268 13.96 22.2348 13.612 22.2348 13.18L22.1988 9.832ZM28.2389 10.924C28.4949 10.788 28.7709 10.68 29.0669 10.6C29.3709 10.52 29.6789 10.48 29.9909 10.48C30.4469 10.48 30.8589 10.544 31.2269 10.672C31.5949 10.8 31.9069 10.98 32.1629 11.212C32.4189 11.444 32.6149 11.732 32.7509 12.076C32.8949 12.412 32.9669 12.788 32.9669 13.204C32.9669 14.084 32.6469 14.82 32.0069 15.412C31.3749 15.972 30.5549 16.252 29.5469 16.252C28.7149 16.252 28.0069 16.052 27.4229 15.652C26.8229 15.236 26.5229 14.716 26.5229 14.092C26.5229 13.932 26.5509 13.784 26.6069 13.648C26.6629 13.504 26.7389 13.384 26.8349 13.288C26.9389 13.184 27.0589 13.104 27.1949 13.048C27.3309 12.984 27.4749 12.952 27.6269 12.952C27.8829 12.952 28.0909 13.024 28.2509 13.168C28.4189 13.312 28.5029 13.504 28.5029 13.744C28.5029 13.912 28.4429 14.06 28.3229 14.188C28.2109 14.308 28.0749 14.376 27.9149 14.392C27.9629 14.552 28.1269 14.708 28.4069 14.86L28.3949 14.848C28.5869 14.936 28.7909 15.008 29.0069 15.064C29.2229 15.112 29.4469 15.136 29.6789 15.136C30.2389 15.136 30.6949 14.964 31.0469 14.62C31.4069 14.284 31.5869 13.832 31.5869 13.264C31.5869 12.744 31.4349 12.336 31.1309 12.04C30.8349 11.744 30.4269 11.596 29.9069 11.596C29.2669 11.596 28.7429 11.788 28.3349 12.172C28.2469 12.26 28.1709 12.332 28.1069 12.388C28.0509 12.444 27.9989 12.488 27.9509 12.52C27.9029 12.552 27.8509 12.58 27.7949 12.604C27.7469 12.62 27.6869 12.632 27.6149 12.64H27.5309C27.0989 12.64 26.8829 12.416 26.8829 11.968C26.8829 11.952 26.8789 11.94 26.8709 11.932C26.8709 11.916 26.8789 11.896 26.8949 11.872C26.9189 11.512 26.9469 11.148 26.9789 10.78C27.0109 10.412 27.0389 10.048 27.0629 9.688C27.0709 9.648 27.0749 9.604 27.0749 9.556C27.0749 9.5 27.0749 9.44 27.0749 9.376C27.0749 9.328 27.0749 9.28 27.0749 9.232C27.0829 9.184 27.0869 9.128 27.0869 9.064C27.0949 8.632 27.1349 8.348 27.2069 8.212H27.1949C27.2909 8.06 27.4909 7.984 27.7949 7.984C27.8429 7.984 27.8909 7.984 27.9389 7.984C27.9949 7.984 28.0309 7.988 28.0469 7.996C28.1349 7.996 28.2229 7.996 28.3109 7.996C28.3989 7.988 28.4869 7.984 28.5749 7.984H30.6509C30.7629 7.984 30.8549 7.984 30.9269 7.984C31.0069 7.984 31.0789 7.98 31.1429 7.972C31.1829 7.972 31.2189 7.972 31.2509 7.972C31.2829 7.964 31.3189 7.96 31.3589 7.96C31.4069 7.952 31.4549 7.948 31.5029 7.948C31.5589 7.948 31.6029 7.948 31.6349 7.948C32.0749 7.948 32.2949 8.228 32.2949 8.788L32.2829 8.872C32.2829 8.96 32.2909 9.06 32.3069 9.172C32.3229 9.284 32.3429 9.404 32.3669 9.532C32.3909 9.588 32.4029 9.64 32.4029 9.688C32.4109 9.728 32.4149 9.772 32.4149 9.82C32.4149 10.18 32.2189 10.36 31.8269 10.36C31.4509 10.36 31.2549 10.124 31.2389 9.652C31.2309 9.332 31.1109 9.172 30.8789 9.172H28.4669C28.3869 9.172 28.3429 9.26 28.3349 9.436L28.2389 10.924Z" fill="black"/>
</g>
<circle cx="17.0625" cy="7.0625" r="7.0625" fill="#22C55E"/>
<path d="M19.7736 4.18248C19.8573 4.099 19.9912 4.099 20.0582 4.18248L20.5437 4.64998C20.6107 4.73346 20.6107 4.86703 20.5437 4.93381L15.5211 9.94268C15.4374 10.0262 15.3202 10.0262 15.2365 9.94268L12.9931 7.72208C12.9261 7.6386 12.9261 7.50503 12.9931 7.43825L13.4786 6.95406C13.5456 6.88727 13.6795 6.88727 13.7632 6.95406L15.3704 8.57359L19.7736 4.18248Z" fill="white"/>
</svg>
